<svg width="18" height="19" viewBox="0 0 18 19" fill="none" xmlns="http://www.w3.org/2000/svg">
<path d="M16.2291 12.76L13.6891 12.47C13.0791 12.4 12.4791 12.61 12.0491 13.04L10.2091 14.88C7.37906 13.44 5.05906 11.13 3.61906 8.29001L5.46906 6.44001C5.89906 6.01001 6.10906 5.41001 6.03906 4.80001L5.74906 2.28001C5.62906 1.27001 4.77906 0.51001 3.75906 0.51001H2.02906C0.899064 0.51001 -0.0409359 1.45001 0.0290641 2.58001C0.559064 11.12 7.38906 17.94 15.9191 18.47C17.0491 18.54 17.9891 17.6 17.9891 16.47V14.74C17.9991 13.73 17.2391 12.88 16.2291 12.76V12.76Z" fill="currentColor"/>
</svg>
