<svg
    xmlns="http://www.w3.org/2000/svg"
    viewBox="0 0 24 24"
    width="24"
    height="24"
    fill="currentColor"
>
    <title>Trip Advisor Logo</title>
    <path
        d="M6.11133 7.25103C7.9409 7.01488 13.1319 6.85229 11.7096 14.3533L13.3228 14.2221C12.6163 9.59858 14.0943 7.24097 18.7159 7.01488C11.0507 2.77001 6.68622 7.1767 6.11133 7.25103Z"
    />
    <path
        d="M7.56962 12.3971C8.01797 12.3971 8.38143 12.0336 8.38143 11.5852C8.38143 11.1369 8.01797 10.7734 7.56962 10.7734C7.12127 10.7734 6.75781 11.1369 6.75781 11.5852C6.75781 12.0336 7.12127 12.3971 7.56962 12.3971Z"
    />
    <path
        d="M17.3563 12.3963C17.8045 12.3963 18.1678 12.033 18.1678 11.5849C18.1678 11.1367 17.8045 10.7734 17.3563 10.7734C16.9082 10.7734 16.5449 11.1367 16.5449 11.5849C16.5449 12.033 16.9082 12.3963 17.3563 12.3963Z"
    />
    <path
        d="M21.2869 8.73403C21.4913 8.03217 21.8161 7.37134 22.2473 6.78135L18.9881 6.77864C17.0393 5.55841 14.7769 4.93049 12.4781 4.97152C10.1228 4.92119 7.80276 5.55725 5.80246 6.80187L2.74414 6.80342C3.17153 7.38914 3.49478 8.04417 3.69996 8.73945C3.08327 9.5772 2.75033 10.5911 2.75033 11.6317C2.75033 14.3083 4.95271 16.5107 7.62932 16.5107C9.11087 16.5107 10.5146 15.8355 11.4398 14.678L12.4793 16.2343L13.5288 14.6649C14.4536 15.8456 15.8729 16.5362 17.3726 16.5362C20.0511 16.5362 22.2555 14.3319 22.2555 11.6534C22.2555 10.6015 21.9156 9.5772 21.2869 8.73403ZM17.2112 6.76509C14.73 6.8371 12.6817 8.79597 12.4986 11.2713C12.314 8.77197 10.2355 6.79955 7.72998 6.74612C9.23398 6.1213 10.8495 5.80733 12.4781 5.82282C14.1044 5.79843 15.718 6.11936 17.2112 6.76509ZM7.63203 15.5239H7.63165C5.49315 15.5239 3.73364 13.7644 3.73364 11.6259C3.73364 9.487 5.49315 7.72749 7.63165 7.72749C9.77015 7.72749 11.53 9.487 11.53 11.6259V11.6267C11.5273 13.764 9.76938 15.5216 7.63203 15.5239ZM18.7171 15.3028C16.711 16.0423 14.4513 15.0013 13.7096 12.9955V12.9944C13.5505 12.5624 13.4688 12.1059 13.4688 11.6456C13.4688 9.50674 15.2287 7.74724 17.3672 7.74724C19.5061 7.74724 21.2656 9.50674 21.2656 11.6456C21.2656 13.2743 20.2451 14.7388 18.7171 15.3028ZM7.57203 9.1711H7.56855C6.24495 9.1711 5.15634 10.2601 5.15634 11.5833C5.15634 12.9069 6.24495 13.9955 7.56855 13.9955C8.89175 13.9955 9.98075 12.9069 9.98075 11.5833V11.5829C9.97843 10.262 8.89291 9.17497 7.57203 9.1711ZM7.57203 13.1647H7.56893C6.70138 13.1647 5.98712 12.4509 5.98712 11.5833C5.98712 10.7157 6.70138 10.0019 7.56893 10.0019C8.4361 10.0019 9.14997 10.7157 9.15036 11.5829C9.14842 12.4489 8.43765 13.1609 7.57203 13.1647ZM17.3563 9.1711H17.3552C16.0316 9.1711 14.943 10.2601 14.943 11.5833C14.943 12.9069 16.0316 13.9955 17.3552 13.9955C18.6784 13.9955 19.7674 12.9069 19.7674 11.5833V11.5829C19.7654 10.2609 18.6784 9.17342 17.3563 9.1711ZM17.3563 13.1647H17.3556C16.488 13.1647 15.7741 12.4509 15.7741 11.5833C15.7741 10.7157 16.488 10.0019 17.3556 10.0019C18.2231 10.0019 18.937 10.7157 18.9374 11.5829C18.9362 12.4501 18.2231 13.1632 17.3563 13.1647Z"
    />
</svg>
