<svg width="100%" height="100%" viewBox="0 0 48 49" version="1.1" xmlns="http://www.w3.org/2000/svg" xmlns:xlink="http://www.w3.org/1999/xlink" xml:space="preserve" xmlns:serif="http://www.serif.com/" style="fill-rule:evenodd;clip-rule:evenodd;stroke-linejoin:round;stroke-miterlimit:2;">
    <path d="M24,0.68C37.246,0.68 48,11.434 48,24.68C48,37.926 37.246,48.68 24,48.68C10.754,48.68 0,37.926 0,24.68C0,11.434 10.754,0.68 24,0.68ZM29.5,14.68C29.5,14.404 29.276,14.18 29,14.18L26,14.18C22.962,14.18 20.5,16.642 20.5,19.68C20.5,19.68 20.5,22.18 20.5,22.18C20.5,22.18 18,22.18 18,22.18C17.724,22.18 17.5,22.404 17.5,22.68L17.5,26.68C17.5,26.956 17.724,27.18 18,27.18L20.5,27.18C20.5,27.18 20.5,34.68 20.5,34.68C20.5,34.956 20.724,35.18 21,35.18L25,35.18C25.276,35.18 25.5,34.956 25.5,34.68L25.5,27.18C25.5,27.18 28,27.18 28,27.18C28.229,27.18 28.429,27.024 28.485,26.801L29.485,22.801C29.522,22.652 29.489,22.493 29.394,22.372C29.299,22.251 29.154,22.18 29,22.18L25.5,22.18C25.5,22.18 25.5,19.68 25.5,19.68C25.5,19.404 25.724,19.18 26,19.18L29,19.18C29.276,19.18 29.5,18.956 29.5,18.68L29.5,14.68ZM28.5,15.18L28.5,18.18C28.5,18.18 26,18.18 26,18.18C25.172,18.18 24.5,18.851 24.5,19.68C24.5,19.68 24.5,22.68 24.5,22.68C24.5,22.956 24.724,23.18 25,23.18L28.36,23.18C28.36,23.18 27.61,26.18 27.61,26.18C27.61,26.18 25,26.18 25,26.18C24.724,26.18 24.5,26.404 24.5,26.68L24.5,34.18C24.5,34.18 21.5,34.18 21.5,34.18C21.5,34.18 21.5,26.68 21.5,26.68C21.5,26.404 21.276,26.18 21,26.18L18.5,26.18C18.5,26.18 18.5,23.18 18.5,23.18C18.5,23.18 21,23.18 21,23.18C21.276,23.18 21.5,22.956 21.5,22.68L21.5,19.68C21.5,17.195 23.515,15.18 26,15.18L28.5,15.18Z" fill="currentColor"/>
</svg>
