
<svg width="100%" height="100%" viewBox="0 0 48 49" version="1.1" xmlns="http://www.w3.org/2000/svg" xmlns:xlink="http://www.w3.org/1999/xlink" xml:space="preserve" xmlns:serif="http://www.serif.com/" style="fill-rule:evenodd;clip-rule:evenodd;stroke-linejoin:round;stroke-miterlimit:2;">
    <path d="M24,0.68C37.246,0.68 48,11.434 48,24.68C48,37.926 37.246,48.68 24,48.68C10.754,48.68 0,37.926 0,24.68C0,11.434 10.754,0.68 24,0.68ZM13.5,19.68L13.5,29.68C13.5,32.717 15.962,35.18 19,35.18L29,35.18C32.038,35.18 34.5,32.717 34.5,29.68C34.5,29.68 34.5,19.68 34.5,19.68C34.5,16.642 32.038,14.18 29,14.18C29,14.18 19,14.18 19,14.18C15.962,14.18 13.5,16.642 13.5,19.68ZM14.5,19.68C14.5,17.195 16.515,15.18 19,15.18L29,15.18C31.485,15.18 33.5,17.195 33.5,19.68L33.5,29.68C33.5,32.165 31.485,34.18 29,34.18C29,34.18 19,34.18 19,34.18C16.515,34.18 14.5,32.165 14.5,29.68C14.5,29.68 14.5,19.68 14.5,19.68ZM28.494,23.977C28.204,22.016 26.664,20.476 24.703,20.185C24.703,20.185 24.703,20.185 24.703,20.185C22.783,19.901 20.896,20.879 20.023,22.613C20.023,22.613 20.023,22.614 20.023,22.614C19.151,24.348 19.488,26.446 20.861,27.819C22.234,29.191 24.332,29.529 26.066,28.656C27.8,27.783 28.779,25.897 28.494,23.977L28.494,23.977ZM27.505,24.123C27.505,24.123 27.505,24.123 27.505,24.123C27.727,25.617 26.965,27.084 25.617,27.763C24.268,28.442 22.636,28.179 21.568,27.112C21.568,27.112 21.568,27.112 21.568,27.112C20.5,26.044 20.238,24.412 20.917,23.063C21.596,21.714 23.063,20.953 24.556,21.174C26.082,21.401 27.279,22.598 27.505,24.123Z" fill="currentColor"/>
</svg>
