<svg width="18" height="19" viewBox="0 0 18 19" fill="none" xmlns="http://www.w3.org/2000/svg">
<path fill-rule="evenodd" clip-rule="evenodd" d="M1.5 5.96826C1.5 3.75912 3.29086 1.96826 5.5 1.96826H12.5C14.7091 1.96826 16.5 3.75912 16.5 5.96826V12.9683C16.5 15.1774 14.7091 16.9683 12.5 16.9683H5.5C3.29086 16.9683 1.5 15.1774 1.5 12.9683V5.96826Z" fill="currentColor"/>
<path fill-rule="evenodd" clip-rule="evenodd" d="M11.9999 8.99564C12.1897 10.2759 11.5371 11.5335 10.3811 12.1154C9.22503 12.6973 7.82615 12.4722 6.91099 11.557C5.99583 10.6418 5.77073 9.24297 6.3526 8.08692C6.93448 6.93087 8.19213 6.27829 9.47236 6.46814C10.7796 6.66198 11.806 7.6884 11.9999 8.99564Z" fill="white"/>
<circle cx="13.326" cy="5.24791" r="0.890488" fill="white"/>
</svg>
