<svg width="100%" height="100%" viewBox="0 0 48 48" version="1.1" xmlns="http://www.w3.org/2000/svg" xmlns:xlink="http://www.w3.org/1999/xlink" xml:space="preserve" xmlns:serif="http://www.serif.com/" style="fill-rule:evenodd;clip-rule:evenodd;stroke-linejoin:round;stroke-miterlimit:2;">
    <path d="M24,0C37.246,0 48,10.754 48,24C48,37.246 37.246,48 24,48C10.754,48 0,37.246 0,24C0,10.754 10.754,0 24,0ZM21.936,34.307C20.104,34.307 18.381,33.596 17.079,32.294C15.783,30.998 15.066,29.274 15.066,27.436C15.066,25.604 15.783,23.88 17.079,22.579C18.375,21.283 20.098,20.566 21.936,20.566C22.28,20.566 22.629,20.59 22.967,20.644C23.19,20.68 23.353,20.867 23.353,21.09L23.353,24.519C23.353,24.664 23.28,24.803 23.166,24.887C23.045,24.971 22.895,24.995 22.756,24.947C22.491,24.857 22.214,24.815 21.936,24.815C20.496,24.815 19.321,25.99 19.321,27.43C19.321,28.871 20.496,30.046 21.936,30.046C22.214,30.046 22.491,30.004 22.756,29.913C23.823,29.558 24.54,28.569 24.546,27.442L24.546,13.099C24.546,12.851 24.751,12.647 24.998,12.647L28.349,12.647C28.596,12.647 28.801,12.851 28.801,13.099C28.801,15.726 30.94,17.86 33.568,17.86C33.815,17.86 34.02,18.065 34.02,18.312L34.02,21.675C34.02,21.922 33.815,22.127 33.568,22.127C32.351,22.127 31.169,21.886 30.054,21.416C29.62,21.229 29.199,21.012 28.801,20.765L28.801,27.472C28.795,29.299 28.078,31.01 26.788,32.3C25.739,33.349 24.419,34.018 22.967,34.235C22.629,34.283 22.28,34.307 21.936,34.307ZM21.936,21.482C20.345,21.482 18.845,22.103 17.724,23.23C16.597,24.357 15.976,25.851 15.976,27.442C15.976,29.033 16.597,30.534 17.724,31.655C18.851,32.782 20.345,33.403 21.936,33.403C22.238,33.403 22.539,33.379 22.834,33.337C24.094,33.15 25.245,32.565 26.155,31.655C27.276,30.534 27.897,29.045 27.903,27.466L27.903,19.897C27.903,19.722 27.999,19.565 28.156,19.493C28.313,19.415 28.493,19.433 28.632,19.541C29.181,19.963 29.777,20.313 30.416,20.584C31.278,20.951 32.188,21.156 33.122,21.211L33.122,18.764C30.356,18.547 28.144,16.329 27.921,13.569L25.45,13.569L25.45,27.46C25.444,28.973 24.474,30.311 23.039,30.787C22.678,30.908 22.31,30.968 21.93,30.968C19.99,30.968 18.411,29.389 18.411,27.448C18.411,25.508 19.99,23.929 21.93,23.929C22.105,23.929 22.274,23.941 22.443,23.965L22.443,21.506C22.28,21.488 22.105,21.482 21.936,21.482Z" style="fill:currentColor;"/>
</svg>
