
<svg width="100%" height="100%" viewBox="0 0 49 48" version="1.1" xmlns="http://www.w3.org/2000/svg" xmlns:xlink="http://www.w3.org/1999/xlink" xml:space="preserve" xmlns:serif="http://www.serif.com/" style="fill-rule:evenodd;clip-rule:evenodd;stroke-linejoin:round;stroke-miterlimit:2;">
    <path d="M24.632,0C37.878,0 48.632,10.754 48.632,24C48.632,37.246 37.878,48 24.632,48C11.386,48 0.632,37.246 0.632,24C0.632,10.754 11.386,0 24.632,0ZM36.118,15.118C36.167,14.916 36.085,14.704 35.913,14.587C35.741,14.469 35.514,14.471 35.344,14.591C34.514,15.176 33.604,15.637 32.642,15.958C31.262,14.57 29.184,14.112 27.336,14.817C25.385,15.562 24.106,17.444 24.132,19.531C24.132,19.531 24.132,20.031 24.132,20.031C20.912,19.961 17.903,18.364 16.041,15.713C15.937,15.565 15.763,15.485 15.583,15.502C15.404,15.52 15.248,15.632 15.175,15.797C15.175,15.797 11.226,24.682 19.596,29.055C17.794,30.08 15.735,30.583 13.652,30.5C13.42,30.491 13.213,30.642 13.15,30.865C13.088,31.088 13.187,31.325 13.389,31.437C18.986,34.547 25.329,33.906 29.509,30.336C32.296,27.956 34.132,24.269 34.132,19.5C34.132,19.499 34.132,19.499 34.132,19.498C34.131,19.278 34.116,19.057 34.086,18.839C35.076,17.8 35.777,16.517 36.118,15.118ZM34.706,16.155C34.343,16.958 33.833,17.69 33.201,18.314C33.082,18.431 33.029,18.6 33.061,18.764C33.107,19.007 33.131,19.254 33.132,19.501C33.132,23.931 31.448,27.365 28.859,29.576C25.412,32.521 20.379,33.292 15.653,31.408C17.53,31.165 19.333,30.486 20.913,29.414C21.063,29.312 21.146,29.136 21.13,28.956C21.114,28.775 21.001,28.617 20.835,28.543C13.906,25.464 15.094,19.262 15.791,17.028C17.965,19.632 21.221,21.119 24.645,21.03C24.916,21.023 25.132,20.801 25.132,20.53L25.132,19.523C25.109,17.853 26.132,16.347 27.692,15.752C27.692,15.752 27.692,15.752 27.692,15.752C29.252,15.156 31.019,15.598 32.115,16.858C32.244,17.007 32.448,17.065 32.636,17.009C33.353,16.793 34.046,16.507 34.705,16.156L34.706,16.155Z" fill="currentColor"/>
</svg>
