
<svg width="100%" height="100%" viewBox="0 0 49 48" version="1.1" xmlns="http://www.w3.org/2000/svg" xmlns:xlink="http://www.w3.org/1999/xlink" xml:space="preserve" xmlns:serif="http://www.serif.com/" style="fill-rule:evenodd;clip-rule:evenodd;stroke-linejoin:round;stroke-miterlimit:2;">
    <path d="M24.632,0C37.878,0 48.632,10.754 48.632,24C48.632,37.246 37.878,48 24.632,48C11.386,48 0.632,37.246 0.632,24C0.632,10.754 11.386,0 24.632,0ZM15.963,13.732L15.952,13.734C12.568,14.465 10.632,16.685 10.632,19.44L10.632,29.503C10.632,32.299 12.559,34.491 15.996,35.251L16.007,35.254C18.866,35.747 21.746,35.996 24.632,36L24.633,36C27.529,36 30.42,35.755 33.278,35.268L33.284,35.267C36.622,34.615 38.632,32.328 38.632,29.516C38.632,29.516 38.632,19.453 38.632,19.453C38.632,16.659 36.624,14.369 33.259,13.735L33.254,13.734C27.526,12.756 21.686,12.756 15.963,13.732ZM16.142,14.716C21.749,13.761 27.47,13.761 33.077,14.718C35.894,15.25 37.632,17.114 37.632,19.453L37.632,29.516C37.632,31.872 35.894,33.736 33.104,34.283C30.304,34.76 27.471,35 24.633,35C21.81,34.996 18.992,34.752 16.207,34.273C13.316,33.631 11.632,31.852 11.632,29.503C11.632,29.503 11.632,19.44 11.632,19.44C11.632,17.132 13.315,15.333 16.135,14.718L16.142,14.716ZM29.704,22.936L21.484,18.825C20.96,18.564 20.339,18.592 19.842,18.899C19.842,18.899 19.842,18.9 19.841,18.9C19.344,19.208 19.041,19.751 19.041,20.336L19.041,28.556C19.041,29.14 19.345,29.684 19.842,29.991C20.339,30.299 20.96,30.326 21.484,30.065L29.704,25.955C30.276,25.669 30.637,25.085 30.637,24.446C30.637,23.806 30.276,23.223 29.704,22.936ZM29.256,23.83C29.489,23.947 29.637,24.185 29.637,24.446C29.637,24.706 29.49,24.944 29.257,25.06L21.038,29.17C20.824,29.277 20.571,29.266 20.368,29.141C20.368,29.141 20.368,29.14 20.367,29.14C20.165,29.015 20.041,28.794 20.041,28.556C20.041,28.556 20.041,20.336 20.041,20.336C20.041,20.097 20.165,19.876 20.368,19.75C20.571,19.625 20.824,19.614 21.038,19.72L29.256,23.83Z" fill="currentColor"/>
</svg>
